<!DOCTYPE svg PUBLIC "-//W3C//DTD SVG 1.1//EN" "http://www.w3.org/Graphics/SVG/1.1/DTD/svg11.dtd">
<!-- Uploaded to: SVG Repo, www.svgrepo.com, Transformed by: SVG Repo Mixer Tools -->
<svg fill="#FFD700" height="800px" width="800px" version="1.1" id="Capa_1" xmlns="http://www.w3.org/2000/svg" xmlns:xlink="http://www.w3.org/1999/xlink" viewBox="0 0 476.801 476.801" xml:space="preserve" stroke="#FFD700">
<g id="SVGRepo_bgCarrier" stroke-width="0"/>
<g id="SVGRepo_tracerCarrier" stroke-linecap="round" stroke-linejoin="round"/>
<g id="SVGRepo_iconCarrier"> <path d="M195.2,110.4v51.2c0,4.418-3.582,8-8,8s-8-3.582-8-8v-51.2c0-4.418,3.582-8,8-8S195.2,105.982,195.2,110.4z M238.4,102.4 c-4.418,0-8,3.582-8,8v51.2c0,4.418,3.582,8,8,8s8-3.582,8-8v-51.2C246.4,105.982,242.818,102.4,238.4,102.4z M289.601,102.4 c-4.418,0-8,3.582-8,8v51.2c0,4.418,3.582,8,8,8s8-3.582,8-8v-51.2C297.601,105.982,294.019,102.4,289.601,102.4z M177.2,67.2 c4.418,0,8-3.582,8-8c0-10.045,3.665-14.735,8.304-20.675C198.715,31.855,205.2,23.555,205.2,8c0-4.418-3.582-8-8-8s-8,3.582-8,8 c0,10.046-3.665,14.736-8.305,20.676c-5.21,6.67-11.695,14.971-11.695,30.524C169.2,63.618,172.782,67.2,177.2,67.2z M228.4,67.2 c4.418,0,8-3.582,8-8c0-10.045,3.665-14.735,8.304-20.675C249.915,31.855,256.4,23.555,256.4,8c0-4.418-3.582-8-8-8s-8,3.582-8,8 c0,10.046-3.665,14.736-8.305,20.676c-5.21,6.67-11.695,14.971-11.695,30.524C220.4,63.618,223.982,67.2,228.4,67.2z M279.601,67.2 c4.418,0,8-3.582,8-8c0-10.045,3.665-14.735,8.304-20.675c5.211-6.67,11.696-14.971,11.696-30.525c0-4.418-3.582-8-8-8s-8,3.582-8,8 c0,10.046-3.665,14.736-8.305,20.676c-5.21,6.67-11.695,14.971-11.695,30.524C271.601,63.618,275.183,67.2,279.601,67.2z M412.801,142.4c0,14.998-12.202,27.2-27.2,27.2h-9.569c-9.654,34.337-33.275,63.831-64.366,82.225l49.696,198.633 c1.072,4.286-1.533,8.63-5.819,9.702c-0.651,0.163-1.305,0.241-1.947,0.241c-3.584,0-6.846-2.426-7.755-6.061l-16.89-67.508 l-82.55,48.162v33.806c0,4.418-3.582,8-8,8s-8-3.582-8-8v-33.806l-82.55-48.162l-16.89,67.508c-0.909,3.635-4.171,6.061-7.755,6.061 c-0.643,0-1.296-0.078-1.947-0.241c-4.286-1.072-6.892-5.416-5.819-9.702l49.696-198.633 c-31.091-18.395-54.711-47.888-64.366-82.225H91.2c-14.998,0-27.2-12.202-27.2-27.2s12.202-27.2,27.2-27.2h12.674 c7.377-8.896,19.797-16.797,36.681-23.129c26.261-9.848,61.01-15.271,97.845-15.271s71.584,5.423,97.845,15.271 c16.884,6.332,29.304,14.233,36.681,23.129h12.674C400.599,115.2,412.801,127.402,412.801,142.4z M97.358,153.601 C96.47,147.567,96,141.426,96,135.2c0-1.345,0.11-2.678,0.306-4H91.2c-6.176,0-11.2,5.024-11.2,11.2s5.024,11.2,11.2,11.2H97.358z M152.925,366.553H230.4v-94.785c-17.876-1.006-34.991-5.352-50.663-12.383L152.925,366.553z M230.4,416.471v-33.918h-58.137 L230.4,416.471z M304.537,382.553H246.4v33.918L304.537,382.553z M297.064,259.385c-15.673,7.031-32.788,11.377-50.663,12.383 v94.785h77.476L297.064,259.385z M360.347,166.333c-1.045,0.704-2.136,1.406-3.286,2.105c-3.776,2.298-8.697,1.099-10.993-2.675 c-2.297-3.774-1.1-8.696,2.675-10.993c10.355-6.302,16.058-13.252,16.058-19.57c0-2.462-0.846-4.986-2.457-7.512 c-0.01-0.014-0.018-0.028-0.028-0.042c-4.685-7.309-15.81-14.639-31.689-20.594c-24.509-9.19-57.263-14.252-92.227-14.252 s-67.718,5.062-92.227,14.252c-15.757,5.909-26.83,13.172-31.577,20.424c-0.067,0.105-0.134,0.209-0.205,0.311 c-1.57,2.493-2.391,4.982-2.391,7.412c0,9.601,12.775,20.123,34.174,28.147c24.509,9.191,57.263,14.253,92.227,14.253 c26.975,0,52.832-3.034,74.775-8.773c4.27-1.118,8.646,1.439,9.764,5.715c1.118,4.274-1.44,8.646-5.715,9.764 c-23.246,6.081-50.503,9.295-78.824,9.295c-36.835,0-71.584-5.424-97.845-15.271c-9.485-3.557-17.553-7.611-24.12-12.057 c9.053,31.27,31.303,57.921,60.38,73.865c0.966,0.306,1.836,0.778,2.587,1.382C197.132,250.727,217.258,256,238.4,256 s41.269-5.273,58.998-14.481c0.751-0.604,1.621-1.076,2.587-1.382C329.043,224.204,351.283,197.576,360.347,166.333z M396.801,142.4 c0-6.176-5.024-11.2-11.2-11.2h-5.106c0.196,1.322,0.306,2.655,0.306,4c0,6.226-0.47,12.367-1.358,18.4h6.158 C391.776,153.601,396.801,148.576,396.801,142.4z"/> </g>
</svg>