<!DOCTYPE svg PUBLIC "-//W3C//DTD SVG 1.1//EN" "http://www.w3.org/Graphics/SVG/1.1/DTD/svg11.dtd">
<!-- Uploaded to: SVG Repo, www.svgrepo.com, Transformed by: SVG Repo Mixer Tools -->
<svg fill="#FFD700" height="800px" width="800px" version="1.1" id="Layer_1" xmlns="http://www.w3.org/2000/svg" xmlns:xlink="http://www.w3.org/1999/xlink" viewBox="0 0 512 512" xml:space="preserve" stroke="#FFD700">
<g id="SVGRepo_bgCarrier" stroke-width="0"/>
<g id="SVGRepo_tracerCarrier" stroke-linecap="round" stroke-linejoin="round"/>
<g id="SVGRepo_iconCarrier"> <g transform="translate(0 -1)"> <g> <g> <path d="M68.267,436.2c-4.713,0-8.533,3.821-8.533,8.533V461.8c0,4.713,3.82,8.533,8.533,8.533s8.533-3.82,8.533-8.533v-17.067 C76.8,440.021,72.979,436.2,68.267,436.2z"/> <path d="M81.103,188.104c-4.459-1.526-9.311,0.851-10.837,5.31c-3.751,10.959-6.527,22.259-8.285,33.795 c-0.71,4.659,2.492,9.011,7.151,9.721c4.659,0.71,9.011-2.492,9.721-7.151c1.604-10.528,4.137-20.839,7.56-30.839 C87.939,194.482,85.562,189.63,81.103,188.104z"/> <path d="M115.799,119.656c-8.13,8.298-15.514,17.3-22.058,26.896c-2.655,3.894-1.651,9.203,2.242,11.858 s9.203,1.651,11.858-2.242c5.977-8.765,12.723-16.987,20.149-24.568c3.298-3.366,3.243-8.769-0.123-12.067 S119.097,116.29,115.799,119.656z"/> <path d="M188.337,72.713c-10.922,4.011-21.449,8.988-31.469,14.863c-4.066,2.384-5.429,7.612-3.045,11.677 s7.612,5.429,11.677,3.045c9.146-5.363,18.754-9.905,28.721-13.565c4.424-1.625,6.693-6.528,5.068-10.952 C197.665,73.358,192.761,71.089,188.337,72.713z"/> <path d="M275.235,61.666c-6.399-0.623-12.817-0.931-19.503-0.931c-5.205,0.007-10.375,0.217-15.513,0.626 c-4.698,0.374-8.203,4.486-7.829,9.184c0.374,4.698,4.486,8.203,9.184,7.829c4.696-0.374,9.422-0.565,14.171-0.572 c6.125,0,11.991,0.282,17.838,0.851c4.691,0.456,8.863-2.976,9.32-7.667S279.925,62.123,275.235,61.666z"/> <path d="M68.267,353.002c-4.713,0-8.533,3.82-8.533,8.533v33.28c0,4.713,3.82,8.533,8.533,8.533s8.533-3.82,8.533-8.533v-33.28 C76.8,356.822,72.979,353.002,68.267,353.002z"/> <path d="M68.267,269.802c-4.713,0-8.533,3.82-8.533,8.533v33.28c0,4.713,3.82,8.533,8.533,8.533s8.533-3.82,8.533-8.533v-33.28 C76.8,273.622,72.979,269.802,68.267,269.802z"/> <path d="M443.733,273.385c-4.713,0-8.533,3.82-8.533,8.533v33.28c0,4.713,3.82,8.533,8.533,8.533s8.533-3.82,8.533-8.533v-33.28 C452.267,277.206,448.446,273.385,443.733,273.385z"/> <path d="M443.733,356.585c-4.713,0-8.533,3.82-8.533,8.533v33.28c0,4.713,3.82,8.533,8.533,8.533s8.533-3.82,8.533-8.533v-33.28 C452.267,360.406,448.446,356.585,443.733,356.585z"/> <path d="M433.521,232.363c0.642,4.669,4.947,7.934,9.616,7.292c4.669-0.642,7.934-4.947,7.292-9.616 c-1.59-11.566-4.201-22.908-7.791-33.92c-1.461-4.481-6.277-6.929-10.758-5.468c-4.481,1.461-6.929,6.277-5.468,10.758 C429.687,211.457,432.07,221.806,433.521,232.363z"/> <path d="M398.519,122.063c-3.241-3.422-8.642-3.568-12.064-0.328s-3.568,8.642-0.328,12.064 c7.297,7.704,13.902,16.04,19.729,24.904c2.589,3.938,7.88,5.032,11.818,2.443c3.938-2.589,5.032-7.88,2.443-11.818 C413.738,139.622,406.507,130.497,398.519,122.063z"/> <path d="M357.529,89.005c-9.934-6.016-20.388-11.142-31.247-15.308c-4.4-1.688-9.336,0.51-11.024,4.91 c-1.688,4.4,0.51,9.336,4.91,11.024c9.91,3.802,19.451,8.48,28.519,13.972c4.031,2.441,9.278,1.152,11.72-2.879 C362.849,96.693,361.56,91.446,357.529,89.005z"/> <path d="M443.733,436.2c-4.713,0-8.533,3.821-8.533,8.533V461.8c0,4.713,3.82,8.533,8.533,8.533s8.533-3.82,8.533-8.533v-17.067 C452.267,440.021,448.446,436.2,443.733,436.2z"/> <path d="M256,1C114.617,1,0,115.617,0,257v247.467C0,509.18,3.82,513,8.533,513H128c4.713,0,8.533-3.821,8.533-8.533V257 c0-65.977,53.489-119.467,119.467-119.467S375.467,191.023,375.467,257v247.467c0,4.713,3.82,8.533,8.533,8.533h119.467 c4.713,0,8.533-3.821,8.533-8.533V257C512,115.617,397.383,1,256,1z M494.933,495.933h-102.4V257 c0-75.403-61.13-136.533-136.533-136.533S119.467,181.597,119.467,257v238.933h-102.4V257 C17.067,125.043,124.043,18.067,256,18.067S494.933,125.043,494.933,257V495.933z"/> </g> </g> </g> </g>
</svg>