<!DOCTYPE svg PUBLIC "-//W3C//DTD SVG 1.1//EN" "http://www.w3.org/Graphics/SVG/1.1/DTD/svg11.dtd">
<!-- Uploaded to: SVG Repo, www.svgrepo.com, Transformed by: SVG Repo Mixer Tools -->
<svg width="800px" height="800px" viewBox="0 0 400 400" fill="none" xmlns="http://www.w3.org/2000/svg">
<g id="SVGRepo_bgCarrier" stroke-width="0"/>
<g id="SVGRepo_tracerCarrier" stroke-linecap="round" stroke-linejoin="round"/>
<g id="SVGRepo_iconCarrier"> <path d="M138.647 199.973C132.313 151.73 123.014 67.0257 189.767 59.6204C203.263 58.124 220.649 59.0877 232.993 65.2498C270.47 83.9577 272.836 122.92 272.836 159.819C272.836 174.576 265.601 188.409 258.553 200.723C256.624 204.093 244.972 213.677 245.397 211.982" stroke="#FFD700" stroke-opacity="0.9" stroke-width="16" stroke-linecap="round" stroke-linejoin="round"/> <path d="M226.544 178.141C223.044 204.896 236.895 251.473 222.023 276.071C218.893 281.249 214.456 286.282 209.595 289.901C206.678 292.071 203.422 294.272 200.179 295.881C195.345 298.279 190.863 298.497 185.49 298.497C146.429 298.497 168.528 245.022 181.347 270.464" stroke="#FFD700" stroke-opacity="0.9" stroke-width="16" stroke-linecap="round" stroke-linejoin="round"/> <path d="M167.068 180.572C168.012 190.348 167.145 201.057 169.701 210.635C171.282 216.561 184.792 245.304 188.126 251.969C194.486 264.678 199.801 269.068 188.126 282.031C186.16 284.214 184.438 287.539 181.358 288.419C169.791 291.721 168.007 270.758 177.973 270.758" stroke="#FFD700" stroke-opacity="0.9" stroke-width="16" stroke-linecap="round" stroke-linejoin="round"/> <path d="M140.321 202.455C122.946 210.355 102.177 260.604 124.54 271.751" stroke="#FFD700" stroke-opacity="0.9" stroke-width="16" stroke-linecap="round" stroke-linejoin="round"/> <path d="M262.016 200.024C270.258 203.281 274.332 211.167 278.561 218.483C284.956 229.55 292.001 240.068 290.969 253.517C289.3 275.249 269.692 295.748 249.232 299.475C246.856 299.908 242.229 301.636 239.832 300.606C225.617 294.503 230.807 271.599 246.224 271.599" stroke="#FFD700" stroke-opacity="0.9" stroke-width="16" stroke-linecap="round" stroke-linejoin="round"/> <path d="M151.014 284.931C142.572 283.244 133.645 278.719 124.874 280.796C108.752 284.614 79.6663 310.085 94.6266 328.907C101.924 338.09 116.214 338.617 126.741 339.432C168.26 342.647 199.837 326.412 224.206 292.072" stroke="#FFD700" stroke-opacity="0.9" stroke-width="16" stroke-linecap="round" stroke-linejoin="round"/> <path d="M202.324 323.878C212.887 341.047 308.71 348.005 319.967 330.982C335.734 307.138 299.686 277.253 276.881 280.505" stroke="#FFD700" stroke-opacity="0.9" stroke-width="16" stroke-linecap="round" stroke-linejoin="round"/> <path d="M137.89 109.589C125.847 82.6002 67.673 102.526 73.9257 127.562C75.2214 132.751 96.9586 141.05 99.3619 152.276C103.322 170.774 89.2159 207.318 119.187 207.318" stroke="#FFD700" stroke-opacity="0.9" stroke-width="16" stroke-linecap="round" stroke-linejoin="round"/> <path d="M269.188 103.867C280.926 96.7866 332.376 88.3441 327.174 114.333C325.092 124.733 310.885 123.052 309.591 133.397C309.005 138.082 312.04 143.391 312.957 147.975C316.681 166.575 316.302 186.307 300.612 198.064C297.279 200.562 294.296 202.978 290.137 203.671" stroke="#FFD700" stroke-opacity="0.9" stroke-width="16" stroke-linecap="round" stroke-linejoin="round"/> <path d="M151.256 257.163C151.602 267.327 138.859 281.428 125.732 274.99" stroke="#FFD700" stroke-opacity="0.9" stroke-width="16" stroke-linecap="round" stroke-linejoin="round"/> <path d="M148.832 147.767C156.522 142.271 164.785 142.544 169.499 151.395" stroke="#FFD700" stroke-opacity="0.9" stroke-width="16" stroke-linecap="round" stroke-linejoin="round"/> <path d="M229.07 150.179C236.159 142.294 246.255 145.264 253.385 150.179" stroke="#FFD700" stroke-opacity="0.9" stroke-width="16" stroke-linecap="round" stroke-linejoin="round"/> <path d="M210.834 121.002C206.869 132.583 191.383 135.285 191.383 121.002" stroke="#FFD700" stroke-opacity="0.9" stroke-width="16" stroke-linecap="round" stroke-linejoin="round"/> <path d="M164.159 200.024C162.639 202.923 160.35 205.028 157.787 206.99C155.238 208.941 149.739 210.46 147.855 212.827C145.442 215.856 161.906 218.615 168.282 210.379" stroke="#FFD700" stroke-opacity="0.9" stroke-width="16" stroke-linecap="round" stroke-linejoin="round"/> </g>
</svg>