<!DOCTYPE svg PUBLIC "-//W3C//DTD SVG 1.1//EN" "http://www.w3.org/Graphics/SVG/1.1/DTD/svg11.dtd">
<!-- Uploaded to: SVG Repo, www.svgrepo.com, Transformed by: SVG Repo Mixer Tools -->
<svg fill="#FFD700" height="800px" width="800px" version="1.1" id="Layer_1" xmlns="http://www.w3.org/2000/svg" xmlns:xlink="http://www.w3.org/1999/xlink" viewBox="0 0 475.016 475.016" xml:space="preserve" stroke="#FFD700">
<g id="SVGRepo_bgCarrier" stroke-width="0"/>
<g id="SVGRepo_tracerCarrier" stroke-linecap="round" stroke-linejoin="round"/>
<g id="SVGRepo_iconCarrier"> <g> <g> <path d="M430.932,111.191l-30.8-37.5c-71.6-88.1-204.7-97.9-298.1-22.1l-18.7,15.4c-93.4,75.8-111,208.5-39,296.7l30.4,37.5 c72,88.5,205.1,97.9,298.5,22.1l18.7-15.4C484.932,332.091,502.632,199.691,430.932,111.191z M385.632,400.391L385.632,400.391 l-18.7,15.4c-84.7,69.1-203.3,64.1-273.8-8.5l11.4-9.4c66.2,65.9,176,69.5,254.4,5.9l16.5-13.5c83.6-68.3,99.4-186.8,34.9-265.5 l-27-33.8c-64.5-79.1-183.4-87.8-267-19.5l-16.9,13.5c-83.2,67.9-99,186.4-34.9,265.5l27.4,33.4c2,2.4,4,4.8,6,7l-11.3,9.3 c-1.5-1.7-2.9-3.4-4.3-5.1l-30.4-37.5c-68.2-84-51.7-210.4,37.5-283.2l18.7-15.4c89.6-72.8,216.4-63.4,284.6,21l30.7,37.5 C491.732,201.591,475.232,327.591,385.632,400.391z M146.232,297.591L146.232,297.591l13.9,17.3c34.1,42,97.5,46.5,141.7,10.5 l8.6-7.1c44.2-36,52.5-98.6,18.4-140.6l-14.3-17.6c-34.1-41.6-97.1-46.5-141.4-10.5l-8.6,7.1c-27.7,22.5-41.3,55.7-39.2,87.6 l-14.2,11.8c-6.6-39.2,8.6-81.7,43.3-110l10.5-8.6c50.2-40.9,121.1-35.6,159.4,11.6l17.3,21.4c38.2,46.9,29.3,117.4-21,158.3 l-10.9,8.6c-49.9,40.9-120.7,35.6-159-11.3l-17.6-21.4c-9.4-11.6-15.9-24.5-19.6-38.1l13.3-10.9 C129.632,270.691,136.032,285.091,146.232,297.591z M170.632,164.091l8.6-7.1c40.5-32.6,97.5-28.5,127.9,9.4l14.3,17.3 c30.7,37.9,23.2,94.5-16.9,127.1l-9,7.1c-40.1,33-97.1,28.5-127.9-9l-13.9-17.6C122.932,253.791,130.132,197.091,170.632,164.091z M115.532,296.191c2.9,4.9,6.3,9.9,10.1,14.6l17.6,21.4c41.6,51.4,118.9,56.6,172.9,12.8l10.5-8.6c54-43.9,64.5-120.8,22.5-172.1 l-17.3-21.4c-41.6-51-118.9-56.6-172.9-12.8l-10.9,8.6c-45.9,37.6-60.2,99.3-37.3,148.5l-11.9,9.8c-28.6-54.7-13.9-125.4,39-168.7 l12.8-10.1c60-48.8,145.1-42.4,190.9,13.9l20.6,25.1c45.7,56.3,34.5,141-25.5,189.8l-12.7,10.1c-60,49.1-144.7,42.8-190.5-13.5 l-20.6-25.5c-3.2-4-6.2-8.1-8.9-12.4L115.532,296.191z M110.932,330.891l15,18.5c49.1,60.4,140.6,67.1,204.4,15l12.7-10.1 c63.7-52.1,75.7-142.5,26.6-203.3l-20.6-25.5c-49.5-60.4-140.6-67.1-204.4-15l-12.8,10.1c-63.6,52-75.7,142.4-27,202.8l-11,9.1 l-1.2-1.5c-53.6-65.6-40.5-163.9,29.2-220.5l14.6-12c69.7-57,168.7-49.5,222,16.1l24,29.3c53.2,65.6,40.5,163.9-29.3,220.9l-15,12 c-69.7,56.6-168.4,49.1-222-16.1l-16.5-20.7L110.932,330.891L110.932,330.891z M108.832,366.691L108.832,366.691 c57,69.8,162,77.3,235.9,17.6l14.6-12c73.5-60,87.4-164.6,30.8-234.4l-24-29.6c-56.6-69.8-162-77.3-235.5-17.3l-14.6,12 c-73.9,59.6-87.7,164.3-30.7,234l16.2,20.4l-11.4,9.1l-18-22c-60.7-75-46.1-187.1,33.7-252l16.5-13.5 c79.9-64.9,192.7-56.6,253.5,18.4l27,33.4c61.1,74.6,46.1,187.1-33.4,252l-16.9,13.5c-79.5,64.9-192.4,56.3-253.1-18.4l-3.3-4 l11.3-9L108.832,366.691z"/> </g> </g> </g>
</svg>