<!DOCTYPE svg PUBLIC "-//W3C//DTD SVG 1.1//EN" "http://www.w3.org/Graphics/SVG/1.1/DTD/svg11.dtd">
<!-- Uploaded to: SVG Repo, www.svgrepo.com, Transformed by: SVG Repo Mixer Tools -->
<svg fill="#FFD700" width="800px" height="800px" viewBox="0 0 500 500" id="Layer_1" version="1.1" xml:space="preserve" xmlns="http://www.w3.org/2000/svg" xmlns:xlink="http://www.w3.org/1999/xlink" stroke="#FFD700">
<g id="SVGRepo_bgCarrier" stroke-width="0"/>
<g id="SVGRepo_tracerCarrier" stroke-linecap="round" stroke-linejoin="round"/>
<g id="SVGRepo_iconCarrier"> <g id="pool"> <path d="M415.77,74.49h-12.13c-9.93,0-18.02,8.08-18.02,18.02v59.8h-56.17V92.5c0-6.63,5.39-12.02,12.02-12.02h12.13 c6.62,0,12.02,5.39,12.02,12.02v39.4h6V92.5c0-9.93-8.08-18.02-18.02-18.02h-12.13c-9.93,0-18.02,8.08-18.02,18.02v95.58v6.15 c1.91-0.32,3.9-0.63,6-0.91v-6.11v-7.37h56.17v6.81v6.06c1.71,0.16,3.73,0.38,6,0.69v-6.11V92.5c0-6.63,5.39-12.02,12.02-12.02 h12.13c6.62,0,12.01,5.39,12.01,12.02v45.47h6V92.5C433.78,82.57,425.7,74.49,415.77,74.49z M385.62,173.85h-56.17V158.3h56.17 V173.85z"/> <g> <g> <path d="M191.86,425.51c-0.43,0-0.86,0-1.29,0c-31.01-0.12-59.56-4.59-84.86-13.28c-31.74-10.9-58.4-28.5-79.25-52.31l-0.17-0.22 c-0.7-0.96-16.98-23.96-8.02-53.35c8.91-29.22,39.14-53.5,89.86-72.18c1.49-0.61,39.38-15.72,98.07-16.83 c0.45-0.02,51.17-2.12,84.02-19.03c2.26-1.39,28.31-16.37,89.28-12.04c3.21,0.08,56.19,1.84,94.48,35.13l0.12,0.11 c0.57,0.56,13.96,13.79,9.35,29.58c-4.61,15.75-25.31,27.49-61.54,34.88l-0.2,0.03c-0.85,0.12-21.34,3.42-24.38,34.49 c-0.05,0.6-1.49,15.76-16.14,34.82c-24.1,31.36-65.12,48.65-95.28,57.64C285.49,413.09,243.94,425.51,191.86,425.51z M31.09,356.09c20.12,22.93,45.85,39.9,76.49,50.44c24.65,8.48,52.53,12.85,82.86,12.98c0.47,0,0.95,0,1.43,0 c51.15,0,91.9-12.16,92.31-12.29c29.16-8.68,68.76-25.3,91.94-55.15c13.78-17.74,15.22-31.98,15.23-32.12 c1.82-18.65,9.63-28.47,15.85-33.43c6.45-5.14,12.59-6.28,13.58-6.43c42.1-8.6,54.18-21.41,56.9-30.64 c3.5-11.89-6.9-22.75-7.71-23.58c-37.03-32.14-90.14-33.59-90.67-33.6l-0.15-0.01c-60.35-4.3-85.6,11.04-85.85,11.2l-0.22,0.13 c-34.05,17.58-84.57,19.67-86.7,19.75c-46.06,0.87-82.98,11.12-96.08,16.43c-48.89,18-77.88,40.95-86.26,68.24 C16.19,333.59,29.97,354.47,31.09,356.09z"/> </g> <g> <path d="M230.91,258.68c-4.88,0-7.44-1.22-9.69-2.29c-2.01-0.96-3.59-1.71-7.11-1.71c-3.52,0-5.11,0.75-7.11,1.71 c-2.26,1.07-4.81,2.29-9.69,2.29s-7.43-1.22-9.69-2.29c-2.01-0.96-3.59-1.71-7.11-1.71v-6c4.88,0,7.44,1.22,9.69,2.29 c2,0.95,3.59,1.71,7.11,1.71s5.11-0.75,7.11-1.71c2.26-1.07,4.81-2.29,9.69-2.29s7.44,1.22,9.69,2.29 c2.01,0.96,3.59,1.71,7.11,1.71s5.11-0.75,7.11-1.71c2.26-1.07,4.81-2.29,9.69-2.29v6c-3.52,0-5.11,0.75-7.11,1.71 C238.35,257.46,235.79,258.68,230.91,258.68z"/> </g> <g> <path d="M367.97,220.87c-4.88,0-7.44-1.22-9.69-2.29c-2.01-0.96-3.59-1.71-7.11-1.71c-3.52,0-5.11,0.75-7.11,1.71 c-2.26,1.07-4.81,2.29-9.69,2.29c-4.88,0-7.43-1.22-9.69-2.29c-2.01-0.96-3.59-1.71-7.11-1.71v-6c4.88,0,7.44,1.22,9.69,2.29 c2,0.95,3.59,1.71,7.11,1.71c3.52,0,5.11-0.75,7.11-1.71c2.26-1.07,4.81-2.29,9.69-2.29c4.88,0,7.44,1.22,9.69,2.29 c2.01,0.96,3.59,1.71,7.11,1.71s5.11-0.75,7.11-1.71c2.26-1.07,4.81-2.29,9.69-2.29v6c-3.52,0-5.11,0.75-7.11,1.71 C375.41,219.65,372.85,220.87,367.97,220.87z"/> </g> <g> <path d="M124.83,313.3c-4.88,0-7.44-1.22-9.69-2.29c-2.01-0.96-3.59-1.71-7.11-1.71c-3.52,0-5.11,0.75-7.11,1.71 c-2.26,1.07-4.81,2.29-9.69,2.29c-4.88,0-7.44-1.22-9.69-2.29c-2-0.95-3.59-1.71-7.11-1.71v-6c4.88,0,7.43,1.22,9.69,2.29 c2.01,0.96,3.59,1.71,7.11,1.71c3.52,0,5.11-0.75,7.11-1.71c2.26-1.07,4.81-2.29,9.69-2.29s7.44,1.22,9.69,2.29 c2.01,0.96,3.59,1.71,7.11,1.71c3.52,0,5.11-0.75,7.11-1.71c2.26-1.07,4.81-2.29,9.69-2.29v6c-3.52,0-5.11,0.75-7.11,1.71 C132.27,312.08,129.71,313.3,124.83,313.3z"/> </g> <g> <path d="M310.73,336.76c-4.88,0-7.44-1.22-9.69-2.29c-2.01-0.96-3.59-1.71-7.11-1.71c-3.52,0-5.11,0.75-7.11,1.71 c-2.26,1.07-4.81,2.29-9.69,2.29c-4.88,0-7.43-1.22-9.69-2.29c-2.01-0.96-3.59-1.71-7.11-1.71v-6c4.88,0,7.44,1.22,9.69,2.29 c2,0.95,3.59,1.71,7.11,1.71c3.52,0,5.11-0.75,7.11-1.71c2.26-1.07,4.81-2.29,9.69-2.29c4.88,0,7.44,1.22,9.69,2.29 c2.01,0.96,3.59,1.71,7.11,1.71s5.11-0.75,7.11-1.71c2.26-1.07,4.81-2.29,9.69-2.29v6c-3.52,0-5.11,0.75-7.11,1.71 C318.17,335.54,315.61,336.76,310.73,336.76z"/> </g> <g> <path d="M197.3,387.87c-4.88,0-7.44-1.22-9.69-2.29c-2.01-0.96-3.59-1.71-7.11-1.71c-3.52,0-5.11,0.75-7.11,1.71 c-2.26,1.07-4.81,2.29-9.69,2.29c-4.88,0-7.44-1.22-9.69-2.29c-2-0.95-3.59-1.71-7.11-1.71v-6c4.88,0,7.44,1.22,9.69,2.29 c2,0.95,3.59,1.71,7.11,1.71s5.11-0.75,7.11-1.71c2.26-1.07,4.81-2.29,9.69-2.29c4.88,0,7.44,1.22,9.69,2.29 c2.01,0.96,3.59,1.71,7.11,1.71s5.11-0.75,7.11-1.71c2.26-1.07,4.81-2.29,9.69-2.29v6c-3.52,0-5.11,0.75-7.11,1.71 C204.74,386.65,202.18,387.87,197.3,387.87z"/> </g> </g> </g> </g>
</svg>