<!DOCTYPE svg PUBLIC "-//W3C//DTD SVG 1.1//EN" "http://www.w3.org/Graphics/SVG/1.1/DTD/svg11.dtd">
<!-- Uploaded to: SVG Repo, www.svgrepo.com, Transformed by: SVG Repo Mixer Tools -->
<svg fill="#FFD700" height="800px" width="800px" version="1.1" id="Layer_1" xmlns="http://www.w3.org/2000/svg" xmlns:xlink="http://www.w3.org/1999/xlink" viewBox="0 0 512.003 512.003" xml:space="preserve" stroke="#FFD700">
<g id="SVGRepo_bgCarrier" stroke-width="0"/>
<g id="SVGRepo_tracerCarrier" stroke-linecap="round" stroke-linejoin="round"/>
<g id="SVGRepo_iconCarrier"> <g transform="translate(0 -1)"> <g> <g> <path d="M382.717,232.013c-4.713,0-8.533,3.821-8.533,8.533v32.913c0,4.713,3.82,8.533,8.533,8.533s8.533-3.82,8.533-8.533 v-32.913C391.25,235.833,387.43,232.013,382.717,232.013z"/> <path d="M382.717,396.587c-4.713,0-8.533,3.82-8.533,8.533v32.913c0,4.713,3.82,8.533,8.533,8.533s8.533-3.82,8.533-8.533V405.12 C391.25,400.407,387.43,396.587,382.717,396.587z"/> <path d="M382.717,314.3c-4.713,0-8.533,3.82-8.533,8.533v32.913c0,4.713,3.82,8.533,8.533,8.533s8.533-3.821,8.533-8.533v-32.913 C391.25,318.12,387.43,314.3,382.717,314.3z"/> <path d="M382.717,149.726c-4.713,0-8.533,3.821-8.533,8.533v32.913c0,4.713,3.82,8.533,8.533,8.533s8.533-3.82,8.533-8.533 v-32.913C391.25,153.546,387.43,149.726,382.717,149.726z"/> <path d="M382.717,67.439c-4.713,0-8.533,3.82-8.533,8.533v32.913c0,4.713,3.82,8.533,8.533,8.533s8.533-3.82,8.533-8.533V75.972 C391.25,71.259,387.43,67.439,382.717,67.439z"/> <path d="M207.73,215.007c-3.333-3.332-8.736-3.332-12.068,0c-3.332,3.333-3.332,8.736,0.001,12.068l23.208,23.206 c3.333,3.332,8.736,3.332,12.068-0.001s3.332-8.736-0.001-12.068L207.73,215.007z"/> <path d="M149.711,156.993c-3.333-3.332-8.736-3.332-12.068,0.001s-3.332,8.736,0,12.068l23.208,23.206 c3.333,3.332,8.736,3.332,12.068-0.001c3.332-3.333,3.332-8.736,0-12.068L149.711,156.993z"/> <path d="M265.75,273.032c-3.333-3.332-8.735-3.332-12.068,0c-3.332,3.332-3.332,8.735,0,12.068l12.066,12.066 c3.332,3.332,8.735,3.332,12.068,0s3.332-8.735,0-12.068L265.75,273.032z"/> <path d="M493.646,1.003H382.768c-0.017,0-0.034-0.003-0.051-0.003s-0.034,0.002-0.051,0.003H271.779 c-4.713,0-8.533,3.82-8.533,8.533v104.112l-81.97-81.977c-3.332-3.333-8.736-3.333-12.068,0L12.322,188.556 c-3.332,3.332-3.332,8.735,0,12.068l250.924,250.924v52.922c0,4.713,3.821,8.533,8.533,8.533h221.867 c4.713,0,8.533-3.821,8.533-8.533V9.536C502.179,4.823,498.359,1.003,493.646,1.003z M485.113,495.936H391.25V487.4 c0-4.713-3.82-8.533-8.533-8.533s-8.533,3.82-8.533,8.533v8.536h-93.871v-47.923c0-2.263-0.899-4.434-2.499-6.034L30.424,194.59 l66.374-66.374l6.032,6.032c3.333,3.332,8.736,3.332,12.068,0c3.332-3.333,3.332-8.735,0-12.068l-6.032-6.032l66.375-66.375 l90.504,90.512c5.376,5.376,14.568,1.569,14.568-6.034V18.069h93.871V26.6c0,4.713,3.82,8.533,8.533,8.533 s8.533-3.82,8.533-8.533v-8.531h93.862V495.936z"/> </g> </g> </g> </g>
</svg>